<svg width="134" height="100" viewBox="0 0 134 100" fill="none" xmlns="http://www.w3.org/2000/svg">
<circle cx="84" cy="50" r="50" fill="#B2AEAE" fill-opacity="0.96"/>
<path d="M12.129 68H7.332V67.168L8.554 66.115V63.463H4.368V66.648L5.837 67.051L5.369 68H0.572V67.168L1.794 66.115V59.121L0.338 58.718L0.806 57.782H5.603V58.601L4.368 59.667V62.358H8.554V59.121L7.098 58.718L7.566 57.782H12.363V58.601L11.128 59.667V66.648L12.597 67.051L12.129 68ZM21.2305 61.799L17.8765 68L14.7175 71.432L13.7945 70.73C14.4272 69.9673 14.8692 69.3087 15.1205 68.754C15.3805 68.1993 15.5322 67.5753 15.5755 66.882L14.1455 63.398L12.8455 62.644V61.812L15.9135 60.72L16.4075 62.683L17.7855 65.998L19.2675 63.164L17.3695 61.916L17.8375 60.967H21.2305V61.799ZM21.2453 71.432L20.3352 70.73C20.7166 70.2793 21.0026 69.885 21.1933 69.547C21.3839 69.2177 21.5139 68.871 21.5833 68.507L20.4263 67.766V66.934L23.2863 65.79L24.1703 68.26L21.2453 71.432ZM41.4786 67.961H38.3846V63.658C38.3846 63.346 38.3326 63.125 38.2286 62.995C38.1333 62.865 37.96 62.8 37.7086 62.8C37.336 62.8 36.9676 62.917 36.6036 63.151V66.674L37.6696 67.025L37.1886 67.974H34.1986V63.671C34.1986 63.359 34.1466 63.138 34.0426 63.008C33.9473 62.878 33.774 62.813 33.5226 62.813C33.15 62.813 32.7816 62.93 32.4176 63.164V66.687L33.4836 67.038L33.0026 67.987H28.8556V67.155L30.0126 66.167V63.437L28.8556 62.696V61.864L31.7156 60.72L32.2356 62.176L33.7436 60.941C33.9516 60.8717 34.19 60.837 34.4586 60.837C34.97 60.837 35.399 60.9497 35.7456 61.175C36.101 61.4003 36.348 61.7123 36.4866 62.111L37.9296 60.941C38.1376 60.8717 38.376 60.837 38.6446 60.837C39.3033 60.837 39.8233 61.019 40.2046 61.383C40.5946 61.7383 40.7896 62.2237 40.7896 62.839V66.674L41.9596 67.012L41.4786 67.961ZM50.3536 61.799L46.9996 68L43.8406 71.432L42.9176 70.73C43.5502 69.9673 43.9922 69.3087 44.2436 68.754C44.5036 68.1993 44.6552 67.5753 44.6986 66.882L43.2686 63.398L41.9686 62.644V61.812L45.0366 60.72L45.5306 62.683L46.9086 65.998L48.3906 63.164L46.4926 61.916L46.9606 60.967H50.3536V61.799ZM64.6205 59.693V68.026H63.3725L57.3015 61.318V66.375L59.3035 67.064L58.8355 68.013H54.8445V67.181L56.0665 66.128V59.55L54.6105 58.718L55.0785 57.782H57.4575L63.3725 64.295V59.407L61.3965 58.718L61.8645 57.782H65.8555V58.627L64.6205 59.693ZM74.2954 68H71.1884V66.869L69.7194 68.026C69.5461 68.0953 69.3294 68.13 69.0694 68.13C68.2114 68.13 67.5917 67.922 67.2104 67.506C66.8291 67.0813 66.6384 66.5743 66.6384 65.985C66.6384 65.647 66.7424 65.3133 66.9504 64.984C67.1584 64.6547 67.4531 64.3513 67.8344 64.074H71.1884V64.022C71.1884 63.5713 71.0627 63.2377 70.8114 63.021C70.5687 62.7957 70.2437 62.683 69.8364 62.683C69.2384 62.683 68.4021 62.891 67.3274 63.307L66.9374 62.501L68.7314 61.058C69.1907 60.9107 69.7324 60.837 70.3564 60.837C71.3791 60.837 72.1721 61.0667 72.7354 61.526C73.3074 61.9853 73.5934 62.6527 73.5934 63.528V66.596L74.7634 67.051L74.2954 68ZM69.8104 66.18C70.2177 66.18 70.6771 66.0153 71.1884 65.686V65.023H69.1474C69.0521 65.179 69.0044 65.348 69.0044 65.53C69.0044 65.7293 69.0737 65.8897 69.2124 66.011C69.3597 66.1237 69.5591 66.18 69.8104 66.18ZM88.007 67.961H84.913V63.658C84.913 63.346 84.861 63.125 84.757 62.995C84.6616 62.865 84.4883 62.8 84.237 62.8C83.8643 62.8 83.496 62.917 83.132 63.151V66.674L84.198 67.025L83.717 67.974H80.727V63.671C80.727 63.359 80.675 63.138 80.571 63.008C80.4756 62.878 80.3023 62.813 80.051 62.813C79.6783 62.813 79.31 62.93 78.946 63.164V66.687L80.012 67.038L79.531 67.987H75.384V67.155L76.541 66.167V63.437L75.384 62.696V61.864L78.244 60.72L78.764 62.176L80.272 60.941C80.48 60.8717 80.7183 60.837 80.987 60.837C81.4983 60.837 81.9273 60.9497 82.274 61.175C82.6293 61.4003 82.8763 61.7123 83.015 62.111L84.458 60.941C84.666 60.8717 84.9043 60.837 85.173 60.837C85.8316 60.837 86.3516 61.019 86.733 61.383C87.123 61.7383 87.318 62.2237 87.318 62.839V66.674L88.488 67.012L88.007 67.961ZM93.5173 60.837C94.4533 60.837 95.177 61.1923 95.6883 61.903C96.2083 62.605 96.4597 63.5973 96.4423 64.88H91.8013C91.8967 65.3393 92.0743 65.7077 92.3343 65.985C92.5943 66.2537 92.9323 66.388 93.3483 66.388C93.9637 66.388 94.8607 66.1237 96.0393 65.595L96.4293 66.401L94.5573 67.909C94.0113 68.0563 93.357 68.13 92.5943 68.13C91.9443 68.13 91.3593 67.9827 90.8393 67.688C90.3193 67.3847 89.912 66.973 89.6173 66.453C89.3313 65.933 89.1883 65.3523 89.1883 64.711C89.1883 64.0177 89.4137 63.3763 89.8643 62.787C90.315 62.189 90.8783 61.7167 91.5543 61.37C92.2303 61.0147 92.8847 60.837 93.5173 60.837ZM92.8153 62.462C92.46 62.462 92.1913 62.5833 92.0093 62.826C91.836 63.06 91.7407 63.424 91.7233 63.918H94.0373C93.9853 63.424 93.8683 63.06 93.6863 62.826C93.5043 62.5833 93.214 62.462 92.8153 62.462ZM105.546 68H101.282V67.168L102.439 66.18V63.411L101.282 62.644V61.825L103.921 60.72H104.844V66.674L106.014 67.051L105.546 68ZM103.635 56.794C104.043 56.794 104.372 56.924 104.623 57.184C104.883 57.4353 105.013 57.7473 105.013 58.12C105.013 58.3887 104.918 58.64 104.727 58.874C104.545 59.0993 104.311 59.2813 104.025 59.42C103.748 59.5587 103.479 59.628 103.219 59.628C102.821 59.628 102.487 59.5023 102.218 59.251C101.958 58.991 101.828 58.6747 101.828 58.302C101.828 58.0333 101.919 57.7863 102.101 57.561C102.292 57.327 102.53 57.1407 102.816 57.002C103.102 56.8633 103.375 56.794 103.635 56.794ZM110.306 66.284C110.306 66.1367 110.202 65.9893 109.994 65.842C109.794 65.686 109.461 65.4737 108.993 65.205C108.542 64.945 108.174 64.7197 107.888 64.529C107.602 64.3383 107.355 64.1217 107.147 63.879C106.947 63.6363 106.848 63.3763 106.848 63.099C106.848 62.787 106.999 62.4533 107.303 62.098C107.615 61.7427 107.996 61.4437 108.447 61.201C108.897 60.9583 109.313 60.837 109.695 60.837C110.154 60.837 110.687 60.889 111.294 60.993C111.909 61.0883 112.355 61.1967 112.633 61.318V63.528H111.723C111.506 63.1293 111.237 62.8173 110.917 62.592C110.605 62.3667 110.284 62.254 109.955 62.254C109.807 62.254 109.69 62.2973 109.604 62.384C109.526 62.462 109.487 62.566 109.487 62.696C109.487 62.8607 109.591 63.021 109.799 63.177C110.015 63.333 110.366 63.5497 110.852 63.827C111.294 64.0783 111.653 64.2993 111.931 64.49C112.208 64.672 112.446 64.88 112.646 65.114C112.845 65.348 112.945 65.5993 112.945 65.868C112.945 66.1887 112.784 66.5267 112.464 66.882C112.143 67.2287 111.749 67.5233 111.281 67.766C110.821 68.0087 110.401 68.13 110.02 68.13C109.526 68.13 108.941 68.0823 108.265 67.987C107.597 67.883 107.121 67.7703 106.835 67.649V65.335H107.745C107.996 65.7683 108.304 66.1063 108.668 66.349C109.04 66.5917 109.409 66.713 109.773 66.713C109.929 66.713 110.054 66.674 110.15 66.596C110.254 66.5093 110.306 66.4053 110.306 66.284Z" fill="white"/>
</svg>
