<svg width="50" height="50" viewBox="0 0 50 50" fill="none" xmlns="http://www.w3.org/2000/svg">
<circle cx="25" cy="25" r="25" fill="#D9D9D9"/>
<path d="M21.264 31H16.928V30.584L18.352 29.48V24.616L16.928 23.608V23.192L19.584 22.216H20.112V29.864L21.552 30.44L21.264 31ZM19.152 17.432C19.4507 17.432 19.6907 17.544 19.872 17.768C20.064 17.992 20.16 18.2693 20.16 18.6C20.16 18.8347 20.0907 19.0587 19.952 19.272C19.824 19.4747 19.6533 19.64 19.44 19.768C19.2373 19.8853 19.04 19.944 18.848 19.944C18.56 19.944 18.32 19.832 18.128 19.608C17.936 19.3733 17.84 19.0907 17.84 18.76C17.84 18.5253 17.904 18.3067 18.032 18.104C18.1707 17.9013 18.3413 17.7413 18.544 17.624C18.7573 17.496 18.96 17.432 19.152 17.432ZM32.8603 31.016H29.9483V25.56C29.9483 24.952 29.8523 24.5307 29.6603 24.296C29.4683 24.0613 29.1323 23.944 28.6523 23.944C28.2789 23.944 27.9109 24.0133 27.5483 24.152C27.1963 24.28 26.7696 24.5467 26.2682 24.952V29.88L27.7083 30.456L27.4203 31.016H23.0843V30.6L24.5082 29.496V24.792L23.0843 23.976V23.56L25.6923 22.216L26.2043 24.344L28.5403 22.488C28.7643 22.4027 29.0469 22.36 29.3883 22.36C30.1029 22.36 30.6683 22.584 31.0843 23.032C31.5003 23.4693 31.7083 24.0667 31.7083 24.824V29.864L33.1483 30.456L32.8603 31.016Z" fill="#2E36D3"/>
</svg>
